<?xml version="1.0" encoding="utf-8"?>
<!-- Generator: Adobe Illustrator 25.2.0, SVG Export Plug-In . SVG Version: 6.00 Build 0)  -->
<svg version="1.1" id="Layer_1" xmlns="http://www.w3.org/2000/svg" xmlns:xlink="http://www.w3.org/1999/xlink" x="0px" y="0px"
	 viewBox="0 0 512 512" style="enable-background:new 0 0 512 512;" xml:space="preserve">
<style type="text/css">
	.st0{stroke:#000000;stroke-width:10;stroke-miterlimit:10;}
</style>
<g id="Line">
	<path class="st0" d="M405.3,490.7c44.6,0,74.7-31.4,83.5-86.2c2-14.3-1.8-28.8-10.7-40.2l-1.7-1.6l-64.7-51.2
		c-20.2-15.1-48.1-14-67.1,2.6l-27.9,26.5c-58.2-13.2-141.9-88.7-146-144.4l27.6-29.1c16.3-19,17.2-46.9,2-66.9l-51-64.5
		c-0.5-0.7-1.2-1.3-1.9-1.8C136,24.9,121.6,21,107.3,23c-54.6,9-86,39-86,83.6C21.3,318.7,193.3,490.7,405.3,490.7z M110.7,44.3
		c1.5-0.1,3.1-0.1,4.6,0c6.6,0,13,2.1,18.3,5.9l49.8,62.9c8.9,11.9,8.5,28.3-1,39.7l-30.3,32c-1.8,2-2.9,4.6-2.9,7.3
		c0,68.7,99.1,158.9,169,170.7c3.3,0.5,6.6-0.5,9.1-2.8l32-30c11.3-9.7,27.8-10.2,39.8-1.4l63.5,49.9c4.8,6.6,6.8,14.9,5.5,22.9
		c-5.2,30.9-20.2,67.9-62.8,67.9C205,469.3,42.7,307,42.7,106.7C42.7,64,79.7,49.1,110.7,44.3z"/>
</g>
</svg>
